<svg width="20" height="20" viewBox="0 0 20 20" fill="none" xmlns="http://www.w3.org/2000/svg">
<path d="M3.33073 16.6668C2.8724 16.6668 2.47656 16.5071 2.14323 16.1877C1.82378 15.8543 1.66406 15.4585 1.66406 15.0002V5.00016C1.66406 4.54183 1.82378 4.15294 2.14323 3.8335C2.47656 3.50016 2.8724 3.3335 3.33073 3.3335H16.6641C17.1224 3.3335 17.5113 3.50016 17.8307 3.8335C18.1641 4.15294 18.3307 4.54183 18.3307 5.00016V15.0002C18.3307 15.4585 18.1641 15.8543 17.8307 16.1877C17.5113 16.5071 17.1224 16.6668 16.6641 16.6668H3.33073ZM9.9974 10.8335L16.6641 6.66683V5.00016L9.9974 9.16683L3.33073 5.00016V6.66683L9.9974 10.8335Z" fill="#7D7D7D"/>
</svg>
