<svg width="18" height="15" viewBox="0 0 18 15" fill="none" xmlns="http://www.w3.org/2000/svg">
<path d="M16.2206 0.119576L0.65378 6.01258C-0.196756 6.25884 -0.169635 7.09745 0.459589 7.3014L4.36186 8.51862L5.85464 13.0935C6.03581 13.5936 6.1801 13.7824 6.49363 13.7867C6.80715 13.7911 6.94385 13.6783 7.28232 13.3734C7.6783 13.0013 8.2804 12.4166 9.23509 11.4901L13.2914 14.4876C14.0378 14.8987 14.5759 14.6861 14.7625 13.7943L17.3054 1.20987C17.5777 0.121745 16.9344 -0.2048 16.2206 0.119576ZM4.97481 8.23873L13.8404 2.67661C14.2743 2.3837 14.4142 2.71024 14.2168 2.93589L6.85814 9.55359L6.48061 12.857L4.97481 8.23873Z" fill="#7D7D7D"/>
</svg>
